<?xml version="1.0" standalone="no"?>
<!DOCTYPE svg PUBLIC "-//W3C//DTD SVG 1.1//EN" "http://www.w3.org/Graphics/SVG/1.1/DTD/svg11.dtd" >
<svg xmlns="http://www.w3.org/2000/svg">
<metadata>Generated by IcoMoon</metadata>
<defs>
<font id="icomoon" horiz-adv-x="1024">
<font-face units-per-em="1024" ascent="960" descent="-64" />
<missing-glyph horiz-adv-x="1024" />
<glyph unicode="&#x20;" horiz-adv-x="512" d="" />
<glyph unicode="&#xe900;" glyph-name="Piano" d="M822.129 378.102l0.287 65.004c0 22.2-1.024 23.675-19.825 34.386l-254.136 129.516-283.505-138.854c-7.025-3.441-14.787-8.786-17.736-13.21s-3.42-12.902-3.42-20.726l0.451-68.076 253.952-126.095c6.225-3.054 13.487-5.066 21.156-5.601l0.184-0.010c6.585 0.38 12.719 1.902 18.342 4.373l-0.34-0.133zM552.059 571.843l226.447-112.906-259.645-127.181-231.158 116.244zM271.913 424.632l232.264-116.859-0.287-38.543-232.264 116.859 0.287 38.543zM532.111 267.346v0l0.205 38.216v1.516l261.939 128.287-0.287-39.711z" />
<glyph unicode="&#xe901;" glyph-name="Polimuro" d="M555.909 732.14l-328.376-171.5v-344.289l76.923-38.687 255.283 129.311 187.433-94.945 76.923 38.646v344.392zM257.823 239.104v284.795l31.089-18.002 1.638-281.58zM320.020 505.221l221.778 114.053 0.717-282.092-220.877-114.913zM730.010 256.635l-157.041 81.162 0.655 282.911 158.024-81.183zM746.578 566.784l-184.32 94.884-257.106-129.188-29.798 17.244 281.702 147.19 219.238-112.824zM793.825 273.347l-32.768-14.725 1.638 281.58 31.089 18.002z" />
<glyph unicode="&#xe902;" glyph-name="Porta" d="M713.564 734.72h-208.896l99.226-35.512h74.199v-448.758h-41.984v398.254l-237.056 86.016h-21.32s0-472.535 0.184-473.846c1.761-24.146 19.169-47.739 41.902-55.972l216.269-78.356v88.392h77.496zM600.535 177.295l-168.632 61.092c-9.769 3.543-18.657 16.22-18.657 26.624 0 0 0 424.591 0.164 426.68l187.126-67.789z" />
<glyph unicode="&#xe903;" glyph-name="Progetto" d="M849.326 544.256l-187.105 130.621h-458.875v-412.672h177.111v36.291h-140.841v340.091h381.379v-340.091h-37.745v-36.25h52.019l214.057-136.602zM813.056 191.775l-154.911 98.816s-0.143 342.016-0.164 342.979l155.075-108.257zM552.96 340.541s-45.568 6.922-52.224 7.25v146.33h-102.81v-256h23.962v77.824c0.492-0.143 19.354-5.898 22.876-6.574v-119.828h20.48v117.412c1.331 0 15.401 0.635 15.401 0.635v-69.632h23.859v72.11l44.851 4.649v-97.239h20.48v110.285h-0.348c0.082 10.076-11.469 11.96-16.527 12.78zM475.136 470.528v-122.88s-45.609-2.048-47.104-2.048v124.928z" />
<glyph unicode="&#xe904;" glyph-name="Quota" d="M304.087 690.668h21.709v-501.76h-21.709c-0.236 0.013-0.513 0.020-0.791 0.020-8.449 0-15.299-6.849-15.299-15.299s6.849-15.299 15.299-15.299c0.278 0 0.555 0.007 0.83 0.022l-0.038-0.002h73.974c0.236-0.013 0.513-0.020 0.791-0.020 8.449 0 15.299 6.849 15.299 15.299s-6.849 15.299-15.299 15.299c-0.278 0-0.555-0.007-0.83-0.022l0.038 0.002h-21.709v501.76h21.709c0.236-0.013 0.513-0.020 0.791-0.020 8.449 0 15.299 6.849 15.299 15.299s-6.849 15.299-15.299 15.299c-0.278 0-0.555-0.007-0.83-0.022l0.038 0.002h-73.974c-0.236 0.013-0.513 0.020-0.791 0.020-8.449 0-15.299-6.849-15.299-15.299s6.849-15.299 15.299-15.299c0.278 0 0.555 0.007 0.83 0.022l-0.038-0.002zM590.172 323.154l-22.835 22.815v22.262l18.616 18.616h28.037l30.945-32.010 11.53 2.847 29.184 29.164h28.16l18.616-18.616v-22.262l-22.815-22.815 18.248-18.268 30.392 30.392v43.643l-33.751 33.751h-49.541l-25.436-25.436-24.576 25.436h-49.684l-33.751-33.751v-43.643l30.392-30.392 18.268 18.268zM724.5 453.161l33.751 33.751v53.78l-34.181 34.181h-147.948l-33.751-33.751v-53.78l34.181-34.181zM568.177 530.412l18.616 18.616h126.566l19.046-19.046v-32.379l-18.616-18.616h-126.566l-19.046 19.046z" />
<glyph unicode="&#xe905;" glyph-name="Scala" d="M892.703 303.391l-74.588 35.881 0.205 46.469c0 22.2-1.024 23.675-19.825 34.386l-76.616 36.864 0.184 43.397c0 22.2-1.024 23.675-19.825 34.386l-58.266 29.573 0.266 60.989c0 22.2-1.024 23.675-19.825 34.386l-149.688 76.308-283.505-138.854c-7.025-3.441-14.787-8.786-17.736-13.21s-3.502-12.923-3.502-20.726l0.532-154.153 2.048-149.504 415.744-193.679c6.225-3.054 13.487-5.066 21.156-5.601l0.184-0.010c6.585 0.38 12.719 1.902 18.342 4.373l-0.34-0.133 284.672 139.407 0.287 65.004c-0.082 22.262-1.106 23.757-19.907 34.447zM711.823 430.551l58.491-28.979-259.645-127.181-58.327 29.061zM790.18 377.999l-0.287-39.711-261.939-128.287 0.287 39.731zM693.924 492.687l-0.287-39.711-261.878-128.287 0.205 38.216v1.516zM674.038 516.26l-259.645-127.181-58.45 30.536c1.7 0.594 2.908 1.085 3.359 1.311l256.451 125.604zM615.834 578.662v-0.758l-261.898-128.287 0.205 38.216v1.516l261.939 128.287zM478.331 700.867l121.999-59.658-259.645-127.181-126.71 62.996zM594.084 95.109l-395.428 182.907-0.471 275.64 127.816-63.611-0.369-85.832 0.369-0.184v-6.144l77.824-38.912-0.369-66.007 96.686-48.742-0.43-67.584 94.638-43.008zM602.829 159.724l-57.344 27.525 259.523 127.119 57.487-27.464zM884.122 221.553l-261.939-128.287 0.287 39.731 261.939 128.287z" />
<glyph unicode="&#xe906;" glyph-name="Sedia" d="M720.896 417.731c-0.123 19.313-22.241 22.917-31.785 24.453 0 0-87.183 13.251-99.901 13.865v279.962h-196.608v-38.154h157.573v-40.817l-0.225-199.885-103.014-5.468c-5.12-0.287-10.24-0.573-14.991-1.004v206.356h-39.465v-410.952h39.342v150.712c0.225 0 43.295-13.21 50.074-14.5v-229.212h39.322v224.829c2.54 0 5.038-0.143 7.475-0.143 0.197-0.001 0.431-0.001 0.664-0.001 5.319 0 10.576 0.268 15.757 0.792l-0.652-0.053 12.513 1.29v-133.734h39.342v137.81l85.832 8.827v-185.958h39.342v210.944z" />
<glyph unicode="&#xe907;" glyph-name="Selezione" d="M568.463 142.234l-99.471 222.106-105.267-105.329v493.568l356.864-341.217-162.632-3.195 100.905-225.464zM480.399 425.8l105.943-236.708 25.682 11.489-108.216 241.971 130.253 2.56-234.885 224.522v-325.038z" />
<glyph unicode="&#xe908;" glyph-name="Square-Selection" d="M433.377 165.335h77.619v-38.912h-77.619v38.912zM586.957 165.335h77.619v-38.912h-77.619v38.912zM357.417 126.423h-97.055v97.055h38.912v-58.143h58.143v-38.912zM837.612 126.423h-97.075v38.912h58.163v58.143h38.912v-97.055zM798.7 532.296h38.912v-77.619h-38.912v77.619zM798.7 378.716h38.912v-79.258h-38.912v79.258zM433.377 703.672h77.619v-38.912h-77.619v38.912zM586.957 703.672h77.619v-38.912h-77.619v38.912zM837.612 608.256h-38.912v56.504h-58.163v38.912h97.075v-95.416zM260.342 378.716h38.912v-79.258h-38.912v79.258zM260.342 532.296h38.912v-77.619h-38.912v77.619zM299.274 703.672v56.504h-38.912v-56.504h-58.163v-38.912h58.163v-56.504h38.912v56.504h58.143v38.912h-58.143z" />
<glyph unicode="&#xe909;" glyph-name="Stanza" d="M823.849 579.072l-342.569 170.598-276.152-144.2v-289.587l347.382-174.612 271.34 137.974-0.737 0.471 0.737 0.369zM482.304 720.036l315.392-154.501 0.696 0.389v-1.188l-245.883-124.928-308.613 155.648zM230.584 331.551v242.975l321.925-163.389 245.883 124.6v-242.401l-241.664-122.47zM738.509 560.046l-251.904 130.396-189.645-94.986 254.792-127.304zM681.165 560.968l-129.352-63.816-55.951 27.812 0.307 131.072zM354.099 595.456l115.302 59.392 0.307-116.736z" />
<glyph unicode="&#xe90a;" glyph-name="Superifici" d="M770.929 181.76l-252.785 579.133-252.805-579.133h-29.819v-38.912h110.592v38.912h-38.318l88.515 202.752h243.548l88.617-202.752h-40.346v-38.912h110.592v38.912zM413.307 423.424l104.837 240.067 104.714-240.067z" />
<glyph unicode="&#xe90b;" glyph-name="Tutorial2" d="M701.604 536.064v154.501c0 25.811-20.924 46.735-46.735 46.735s-46.735-20.924-46.735-46.735v-138.117l-75.776-44.81v182.436c0 25.811-20.924 46.735-46.735 46.735s-46.735-20.924-46.735-46.735v0-237.67l-105.615-62.464-0.758-0.758c-8.425-8.461-13.633-20.131-13.633-33.017 0-2.216 0.154-4.396 0.452-6.53l-0.028 0.246v-152.023c0-25.811 20.924-46.735 46.735-46.735s46.735 20.924 46.735 46.735v0 138.056l26.132 15.258v-149.873c0-25.811 20.924-46.735 46.735-46.735s46.735 20.924 46.735 46.735v204.411l149.504 87.204c12.163 8.929 19.971 23.173 19.971 39.241 0 1.326-0.053 2.639-0.157 3.938l0.011-0.171zM438.907 391.782l-63.488-37.745v-156.201c0-5.18-4.199-9.38-9.38-9.38s-9.38 4.199-9.38 9.38v0 155.034l-0.266 1.577c-0.094 0.5-0.147 1.074-0.147 1.661 0 2.312 0.829 4.431 2.207 6.074l-0.012-0.015 80.486 48.292zM495.022 201.318c0-5.18-4.199-9.38-9.38-9.38s-9.38 4.199-9.38 9.38v0 447.672c3.088-0.767 6.632-1.206 10.28-1.206 3 0 5.93 0.298 8.763 0.865l-0.284-0.047zM495.022 674.058c-2.692-1.339-5.862-2.122-9.216-2.122-11.639 0-21.074 9.435-21.074 21.074s9.435 21.074 21.074 21.074c11.639 0 21.074-9.435 21.074-21.074 0-0.003 0-0.006 0-0.008v0c0-0.033 0-0.071 0-0.11 0-8.264-4.785-15.41-11.735-18.82l-0.123-0.055zM664.187 529.92l-0.123-0.594c-0.475-2.564-1.925-4.724-3.942-6.123l-0.031-0.021-127.713-75.96v19.169l113.111 67.871v114.688l0.758-0.205c3.067-0.771 6.589-1.214 10.213-1.214 2.753 0 5.447 0.255 8.059 0.744l-0.27-0.042v-114.217l0.102-1.004c0.036-0.312 0.056-0.675 0.056-1.041 0-0.727-0.080-1.435-0.232-2.115l0.012 0.064zM665.006 673.956l-0.758-0.328c-2.502-1.154-5.428-1.827-8.512-1.827-3.465 0-6.733 0.85-9.604 2.352l0.114-0.054c-0.266 0.143-0.492 0.307-0.758 0.451-6.427 3.681-10.688 10.499-10.688 18.313 0 11.616 9.417 21.033 21.033 21.033s21.033-9.417 21.033-21.033c0-8.279-4.783-15.441-11.737-18.873l-0.123-0.055z" />
<glyph unicode="&#xe90c;" glyph-name="Angolo" d="M760.934 485.069l-254.362-341.606c-2.724-3.324-4.375-7.619-4.375-12.3 0-10.757 8.72-19.476 19.476-19.476 6.67 0 12.557 3.353 16.067 8.465l0.043 0.066 282.337 379.187-492.114 240.927c-2.728 1.545-5.991 2.456-9.468 2.456-10.757 0-19.476-8.72-19.476-19.476 0-7.999 4.822-14.871 11.717-17.87l0.126-0.049z" />
<glyph unicode="&#xe90d;" glyph-name="Colonna" d="M527.667 732.221l-119.091-60.273v-473.805l105.861-53.248 119.378 58.737 0.696 465.859 0.43 0.205zM493.568 198.799l-51.2 24.371v402.248l49.152-27.914zM515.277 633.119l-51.2 29.88 61.952 30.986 51.2-29.88zM601.293 228.844l-66.765-32.748 1.311 399.36 64.225 30.72z" />
<glyph unicode="&#xe90e;" glyph-name="Coordinate" d="M272.015 636.293c0-16.389-13.286-29.676-29.676-29.676s-29.676 13.286-29.676 29.676c0 16.389 13.286 29.676 29.676 29.676s29.676-13.286 29.676-29.676zM833.987 471.245c0-16.389-13.286-29.676-29.676-29.676s-29.676 13.286-29.676 29.676c0 16.389 13.286 29.676 29.676 29.676s29.676-13.286 29.676-29.676zM357.335 154.092c0-16.389-13.286-29.676-29.676-29.676s-29.676 13.286-29.676 29.676c0 16.389 13.286 29.676 29.676 29.676s29.676-13.286 29.676-29.676zM315.884 224.563l44.524 44.524h0.635v14.828h-64.922v-14.828h43.295l-44.503-44.524h-0.635v-14.828h64.901v14.828h-43.295zM837.079 588.124l-10.486 10.486-22.282-22.303-22.303 22.303-10.486-10.486 25.354-25.375v-35.881h14.848v35.881l25.354 25.375zM275.128 697.467l-22.303 22.282 22.303 22.303-10.486 10.486-22.303-22.282-22.303 22.282-10.486-10.486 22.303-22.303-22.303-22.282 10.486-10.486 22.303 22.282 22.303-22.282 10.486 10.486z" />
<glyph unicode="&#xe90f;" d="M669.696 675.738h-352.256l0.246-193.638v-129.823c0-1.126 0-2.253 0-3.379v-46.305l159.908-103.178v68.362h-0.41v94.208h0.41v227.963l-78.234 50.565h251.904l-78.479-50.565v-262.779h-58.737v-34.12h58.737v-93.614l159.928 103.158v181.596l0.471 191.549zM442.368 563.098v-290.816l-88.064 57.958 0.246 290.038zM697.713 329.216l-89.457-56.996v290.816l90.112 57.344z" />
<glyph unicode="&#xe910;" d="M669.696 675.738h-352.256l0.246-193.638v-129.823c0-1.126 0-2.253 0-3.379v-46.305l159.908-103.178v68.362h-0.41v94.208h0.41v227.963l-78.234 50.565h251.904l-78.479-50.565v-262.779h-58.737v-34.12h58.737v-93.614l159.928 103.158v181.596l0.471 191.549zM442.368 563.098v-290.816l-88.064 57.958 0.246 290.038zM697.713 329.216l-89.457-56.996v290.816l90.112 57.344z" />
<glyph unicode="&#xe911;" glyph-name="Materiali" d="M688.62 728.576h-278.262c-33.057-0.085-60.848-22.534-69.046-53.013l-0.115-0.501h-49.152v-145.654l239.452-37.458v-45.65h-33.382v-296.755h103.997v296.735h-34.816v76.329l-239.329 37.458v79.094h75.776v35.86h-24.044c6.28 10.622 17.675 17.633 30.707 17.633 0.005 0 0.009 0 0.014 0h-0.001c19.637-0.023 35.55-15.936 35.574-35.572v-0.002c0-1.167 0-2.335-0.184-3.461 0-0.389-0.102-0.778-0.164-1.167 0-0.737-0.184-1.475-0.328-2.191s-0.225-0.922-0.328-1.393-0.287-1.249-0.471-1.843-0.328-1.004-0.492-1.495-0.369-1.085-0.594-1.618-0.43-1.044-0.676-1.556-0.43-0.922-0.676-1.393-0.573-1.085-0.881-1.597l-0.696-1.147c-0.348-0.553-0.717-1.126-1.106-1.659l-0.655-0.881c-0.451-0.594-0.901-1.167-1.393-1.741l-0.471-0.532c-0.573-0.635-1.167-1.27-1.782-1.864v0c-5.148-4.983-11.813-8.429-19.236-9.58l-0.199-0.025c-0.614 0-67.236-0.246-67.236-0.246 12.373-21.346 34.939-35.579 60.865-36.023l0.063-0.001h279.265c38.94 0.68 70.245 32.406 70.245 71.444s-31.305 70.764-70.181 71.444l-0.064 0.001zM566.333 185.446h-32.358v224.952h32.358zM688.62 621.548h-216.31l0.328 0.594q0.758 1.331 1.434 2.683l0.512 0.983q0.901 1.823 1.7 3.707l0.328 0.819q0.614 1.516 1.167 3.072l0.43 1.29q0.471 1.434 0.881 2.908c0.102 0.389 0.225 0.778 0.328 1.167 0.348 1.352 0.676 2.703 0.963 4.096 0 0.184 0 0.369 0 0.553q0.348 1.802 0.614 3.645c0 0.451 0.123 0.881 0.164 1.331q0.184 1.536 0.307 3.113c0 0.43 0 0.86 0 1.29 0 1.434 0.143 2.888 0.143 4.342s0 2.908-0.143 4.342c0 0.43 0 0.86 0 1.29q-0.123 1.577-0.307 3.113c0 0.43-0.102 0.881-0.164 1.311q-0.266 1.864-0.614 3.686c0 0.164 0 0.348 0 0.512-0.287 1.372-0.614 2.744-0.963 4.096 0 0.389-0.225 0.758-0.328 1.147q-0.43 1.475-0.901 2.949l-0.43 1.249q-0.553 1.577-1.188 3.113l-0.307 0.778q-0.799 1.884-1.7 3.727l-0.512 0.983q-0.696 1.352-1.434 2.683l-0.328 0.614h216.33c19.647 0 35.574-15.927 35.574-35.574s-15.927-35.574-35.574-35.574v0z" />
<glyph unicode="&#xe912;" glyph-name="Muro" d="M684.728 752.456l-371.384-183.419-1.208 0.614v-381.747l85.176-42.803 372.838 181.576 0.655 375.276 0.348 0.164zM345.682 213.094v315.781l34.468-19.948v-315.802zM398.070 538.378l-33.034 19.128 318.341 155.914 33.034-19.128zM735.764 348.18l-321.126-157.286v317.194l321.126 157.286z" />
<glyph unicode="&#xe913;" glyph-name="New" d="M217.088 470.139h211.231v-46.346h-211.231v46.346zM595.681 469.094h211.231v-46.346h-211.231v46.346zM539.382 470.139v277.012h-46.346v-600.351h46.346v323.338z" />
<glyph unicode="&#xe914;" glyph-name="Print" d="M444.293 345.211v-35.86h129.147v35.717c-49.439-0.225-106.23 0.328-129.147 0.143zM431.739 416.072h249.303v34.632h-39.465c-77.251-0.246-243.241-0.737-269.926-0.737-34.98 0-36.864-35.615-36.864-35.615v-169.984h35.901v171.704zM584.192 214.344h-249.303v-34.632h39.465c77.251 0.246 243.241 0.737 269.926 0.737 34.98 0 36.864 35.615 36.864 35.615v169.984h-36.024v-171.786zM778.916 647.086v0.164l-542.536-0.164v-308.49c0-39.588 32.092-71.68 71.68-71.68v0 39.404c-17.94 0-32.276 16.138-32.276 32.276v269.148h467.251v-269.148c0-16.138-14.336-32.276-32.276-32.276v-39.465c39.588 0 71.68 32.092 71.68 71.68v0 308.552zM622.879 751.104v0h-283.382v-77.128h39.465v37.663h243.917v-37.663h39.465v77.128h-39.465z" />
<glyph unicode="&#xe915;" glyph-name="Prj-from-library" d="M381.932 640.594v34.591h-84.111v84.111h-34.591v-84.111h-84.111v-34.591h84.111v-84.111h34.591v84.111h84.111zM727.552 508.129l-0.184-0.184v0.778l-257.188 0.102-181.883-181.883 24.453-24.453 21.217 21.217v-187.003h100.618v34.591h-65.946v187.003l102.605 102.605 158.269-158.31v-0.737l196.526 0.143v-102.4c0-14.152-12.575-28.303-28.303-28.303h-289.239v-34.591h289.28c34.735 0 62.894 28.159 62.894 62.894v0 102.4h24.064l0.205-0.205 0.205 0.205h0.164v0.164l24.084 24.084zM644.403 336.568l-137.564 137.564h205.865l137.564-137.564z" />
<glyph unicode="&#xe916;" glyph-name="Save-as" d="M350.74 575.468c0-12.238 9.921-22.159 22.159-22.159v0h197.448c12.238 0 22.159 9.921 22.159 22.159v0c0 0.205 0 0.43 0 0.635v0 136.806h177.193v44.339c-478.679-1.188-478.679-1.106-493.24-1.106-43.233 0-45.445-45.445-45.445-45.445v-571.945h44.339v574.157h75.366zM548.188 597.627h-153.108v115.282h153.108zM350.74 238.51h44.339v157.389h159.621l13.292 44.339h-195.092c-12.238 0-22.159-9.921-22.159-22.159v0c0-0.205 0-0.43 0-0.635v0zM619.745 484.68l-2.048-2.048 0.266-0.266c-0.736-1.033-1.419-2.209-1.991-3.447l-0.057-0.137-0.143-0.512c-0.567-1.34-1.029-2.909-1.312-4.538l-0.019-0.131-38.912-137.359c-1.962-3.239-3.123-7.153-3.123-11.337 0-12.227 9.912-22.139 22.139-22.139 3.402 0 6.624 0.767 9.504 2.138l-0.134-0.057 150.835 49.254v0.225c4.679 1.093 8.673 3.548 11.653 6.919l0.020 0.024 0.553-0.532 195.338 195.072-31.396 31.457-0.328-0.328-72.786 72.827 0.266 0.266-31.334 31.375-204.923-204.657c-0.741-0.652-1.417-1.327-2.047-2.044l-0.021-0.025zM899.215 555.561l-160.092-159.908-110.94-36.229 28.058 99.021 170.209 169.984zM350.74 238.51h44.339v157.389h159.621l13.292 44.339h-195.092c-12.238 0-22.159-9.921-22.159-22.159v0c0-0.205 0-0.41 0-0.635v0zM729.825 227.43c0-19.948-17.736-39.895-39.895-39.895h-339.19v-48.783h339.169c48.976 0 88.678 39.703 88.678 88.678v99.738l-48.763-13.292zM619.745 484.68l-2.048-2.048 0.266-0.266c-0.736-1.033-1.419-2.209-1.991-3.447l-0.057-0.137-0.143-0.512c-0.567-1.34-1.030-2.909-1.312-4.538l-0.019-0.131-38.912-137.359c-1.962-3.239-3.123-7.153-3.123-11.337 0-12.227 9.912-22.139 22.139-22.139 3.402 0 6.624 0.767 9.504 2.138l-0.134-0.057 150.835 49.254v0.225c4.679 1.093 8.673 3.548 11.653 6.919l0.020 0.024 0.553-0.532 195.338 195.072-31.396 31.457-0.328-0.328-72.786 72.827 0.266 0.266-31.334 31.375-204.923-204.657c-0.741-0.652-1.417-1.327-2.047-2.044l-0.021-0.025zM656.241 458.465l170.209 169.984 72.786-72.888-160.113-159.908-110.94-36.229zM555.008 331.387h-120.832v-44.339h120.832v44.339z" />
<glyph unicode="&#xe917;" glyph-name="Save" d="M359.977 568.484c0-12.159 9.857-22.016 22.016-22.016v0h195.953c0.030 0 0.066 0 0.102 0 12.159 0 22.016 9.857 22.016 22.016 0 0 0 0 0 0v0c0 0.205 0 0.41 0 0.635v0 135.885h176.128v44.052c-475.709-1.167-475.709-1.106-489.984-1.106-43.008 0-45.056-45.056-45.056-45.056v-568.238h44.052v570.348h74.875zM555.93 590.5h-151.921v114.504h151.9zM736.543 632.32v-409.6c0-19.825-17.613-39.629-39.629-39.629h-336.937v-48.435h336.916c48.636 0 88.064 39.428 88.064 88.064v0 409.6z" />
<glyph unicode="&#xe918;" glyph-name="Search" d="M208.015 160.1l116.881 116.881 30.411-30.411-116.881-116.881-30.411 30.411zM563.2 739.84c-0.042 0-0.091 0-0.14 0-138.478 0-250.737-112.259-250.737-250.737 0-59.852 20.971-114.806 55.965-157.915l-0.365 0.465 37.99-37.99c42.636-34.569 97.555-55.501 157.363-55.501 138.535 0 250.839 112.304 250.839 250.839s-112.304 250.839-250.839 250.839c-0.027 0-0.054 0-0.081 0h0.004zM563.2 281.088c-114.805 0-207.872 93.067-207.872 207.872s93.067 207.872 207.872 207.872c114.805 0 207.872-93.067 207.872-207.872v0c-0.128-114.753-93.119-207.744-207.86-207.872h-0.012z" />
<glyph unicode="&#xe919;" glyph-name="Settings" d="M645.837 443.904c0 74.719-60.572 135.291-135.291 135.291s-135.291-60.572-135.291-135.291c0-74.719 60.572-135.291 135.291-135.291v0c74.686 0.082 135.209 60.605 135.291 135.283v0.008zM510.546 346.132c-0.018 0-0.040 0-0.061 0-53.998 0-97.772 43.774-97.772 97.772s43.774 97.772 97.772 97.772c53.998 0 97.772-43.774 97.772-97.772v0c-0.047-53.962-43.755-97.699-97.701-97.792h-0.009zM743.895 380.396v129.085l57.631 44.36-50.258 86.548-66.908-27.996-112.435 64.922-9.359 71.7h-100.086l-9.196-70.472-117.473-67.809-64.963 26.030-48.968-87.306 57.303-42.721v-132.137l-54.825-42.844 50.913-86.18 66.089 28.242 113.787-65.679 9.626-69.775 97.055 0.737 9.298 114.217-32.338-18.678-7.148-58.245-34.202-0.246-7.639 55.316-145.92 84.234-53.064-22.671-17.408 29.45 43.295 33.812v169.267l-45.978 34.284 16.732 29.839 51.323-20.582 149.32 86.221 7.311 56.177h34.202l7.496-57.426 144.589-83.476 53.658 22.467 17.183-29.594-46.182-35.512v-166.216l47.063-35.656-16.937-29.696-53.084 21.75-72.745-42.004-3.707-45.466 79.258 45.752 66.54-27.238 49.603 86.917-58.45 44.298z" />
<glyph unicode="&#xe91a;" glyph-name="Share" d="M690.176 199.741c-54.090 0.132-97.888 44.011-97.888 98.119 0 47.382 33.585 86.92 78.248 96.106l0.634 0.109c5.722 1.185 12.297 1.864 19.031 1.864 54.179 0 98.099-43.921 98.099-98.099s-43.921-98.099-98.099-98.099c-0.009 0-0.018 0-0.027 0h0.001zM679.936 349.901c-24.495-5.019-42.658-26.397-42.658-52.017 0-29.295 23.748-53.043 53.043-53.043s53.043 23.748 53.043 53.043c0 3.674-0.373 7.26-1.084 10.723l0.059-0.342c-4.847 24.504-26.167 42.725-51.743 42.725-3.774 0-7.455-0.397-11.004-1.151l0.345 0.061zM681.984 498.176c-54.072 0.111-97.863 43.971-97.863 98.058 0 54.156 43.902 98.058 98.058 98.058s98.058-43.902 98.058-98.058c0-20.291-6.163-39.142-16.719-54.784l0.221 0.348c-17.724-26.447-47.494-43.624-81.276-43.624-0.169 0-0.337 0-0.506 0.001h0.026zM682.25 649.298c-3.713-0.003-7.335-0.383-10.832-1.104l0.346 0.060c-14.163-2.841-26.029-11.037-33.632-22.339l-0.119-0.189c-5.572-8.259-8.894-18.436-8.894-29.389 0-29.272 23.73-53.002 53.002-53.002s53.002 23.73 53.002 53.002c0 29.227-23.657 52.929-52.867 53.002h-0.007zM556.933 372.777l-133.796 51.2c0.544 3.881 0.854 8.365 0.854 12.921 0 6.498-0.631 12.849-1.836 18.994l0.101-0.621 131.604 58.081-18.186 41.226-131.686-58.102c-18.141 23.647-46.41 38.741-78.204 38.741-6.764 0-13.369-0.683-19.749-1.984l0.633 0.108c-45.285-9.296-78.86-48.824-78.86-96.194 0-54.179 43.921-98.099 98.099-98.099 33.577 0 63.213 16.869 80.897 42.594l0.216 0.332 133.816-51.2zM370.012 407.593c-9.66-14.237-25.768-23.468-44.033-23.468-29.295 0-53.043 23.748-53.043 53.043 0 25.547 18.061 46.876 42.111 51.915l0.345 0.060c3.151 0.661 6.773 1.041 10.483 1.044h0.003c29.251-0.074 52.934-23.803 52.934-53.064 0-10.977-3.333-21.176-9.043-29.639l0.12 0.188z" />
<glyph unicode="&#xe91b;" glyph-name="Tutorial" d="M296.059 756.818v-595.845c0-39.181 31.762-70.943 70.943-70.943v0h367.084v38.912h-367.084c-17.736 0-31.928 15.954-31.928 31.928v4.096c9.274-4.79 20.241-7.598 31.865-7.598 0.022 0 0.045 0 0.067 0h367.080v38.912h-367.084c-17.736 0-31.928 15.954-31.928 31.928v2.273c9.274-4.79 20.241-7.598 31.865-7.598 0.022 0 0.045 0 0.067 0h367.080v496.681s-1.782 36.352-36.352 36.352c-28.262 0-273.797 0.594-362.639 0.799v0zM334.971 721.347h363.643v-459.305h-331.612c-17.736 0-31.928 15.954-31.928 31.928v427.377zM411.341 666.378v-102.4c0-0.164 0-0.328 0-0.512 0-9.795 7.941-17.736 17.736-17.736v0h180.879c9.795 0 17.736 7.941 17.736 17.736v0 102.4c0 0.164 0 0.328 0 0.512 0 9.795-7.941 17.736-17.736 17.736v0h-180.9c-9.786-0.012-17.715-7.948-17.715-17.736 0 0 0 0 0 0v0zM446.792 648.704h145.408v-67.379h-145.408v67.379z" />
<glyph unicode="&#xe91c;" glyph-name="About" d="M570.020 417.812c66.396 54.313 109.916 95.027 109.916 163.308s-43.643 169.984-163.84 169.984c-68.588 0-109.588-31.826-131.932-58.532-28.078-33.628-38.052-72.212-38.052-95.068h40.96c0 30.085 30.577 112.64 129.024 112.64 97.198 0 122.88-84.398 122.88-129.024 0-45.814-24.863-74.301-94.884-131.604-47.657-38.912-49.541-54.313-48.701-101.396 0.102-6.144 0.225-0.86 0.225-8.663v-54.292l40.96-51.2v105.492c0 8.192-0.123 3.052-0.246 9.38-0.696 39.281-0.717 40.817 33.69 68.977zM495.616 108.032h40.96v60.477l-40.96 51.139v-111.616z" />
<glyph unicode="&#xe91d;" glyph-name="Cloud" d="M710.042 538.563c-27.076 89.75-109.010 153.99-205.947 153.99-118.561 0-214.677-96.095-214.712-214.648v-0.003q0-8.479 0.635-16.876c-51.543-7.719-90.618-51.684-90.618-104.776 0-58.477 47.405-105.882 105.882-105.882 0.027 0 0.054 0 0.080 0h321.88l-2.396 3.072-31.662 39.936h-287.826c-0.030 0-0.066 0-0.102 0-34.724 0-62.874 28.15-62.874 62.874 0 34.688 28.091 62.815 62.766 62.874h0.006v0.205h35.492l-4.977 24.904c-2.064 10-3.246 21.492-3.246 33.26 0 94.856 76.77 171.781 171.567 172.031h0.024c80.261 0 150.835-56.791 167.813-135.025l3.42-15.77 16.097-1.126c53.317-3.82 95.125-48.012 95.125-101.969 0-52.446-39.499-95.666-90.371-101.537l-0.474-0.044-6.328-0.696h-9.052l31.744-40.264c67.36 13.499 117.397 72.173 117.397 142.533 0 71.093-51.085 130.254-118.549 142.779l-0.896 0.138z" />
<glyph unicode="&#xe91e;" glyph-name="DWG" d="M299.008 196.096h-122.88c-22.622 0-40.96 18.338-40.96 40.96v0 448.512c-0.026 0.49-0.040 1.064-0.040 1.642 0 18.459 14.964 33.423 33.423 33.423 4.924 0 9.599-1.065 13.808-2.976l-0.21 0.085 1.249-0.532 143.544-66.826c12.165-5.243 12.411-16.773 12.554-23.675 0-3.42 0.123-8.192 0.184-14.152 0-11.571 0.164-27.116 0.205-43.008 0-31.683 0-64.737 0-70.369v-262.124c0 0 0 0 0 0 0-22.593-18.292-40.913-40.874-40.96h-0.004zM176.128 675.328v-438.272h122.88v262.144c0 55.521-0.143 99.267-0.369 119.173zM626.258 216.474c-6.717 0-16.384 2.97-24.392 17.101l-0.922 1.823-80.589 183.48-71.68-182.907-0.348-0.737c-9.789-20.111-23.798-19.292-29.348-18.002s-18.432 6.676-18.432 29.041v460.8h40.96v-377.446l50.012 127.652 0.348 0.737c5.816 11.919 15.688 18.944 27.095 19.292s21.688-6.144 28.201-17.633l0.922-1.823 61.297-139.571v388.792h40.96v-460.8c0-21.914-12.739-27.628-18.227-29.061-1.729-0.468-3.714-0.737-5.762-0.737-0.034 0-0.067 0-0.101 0h0.005zM889.856 197.12h-122.88c-22.622 0-40.96 18.338-40.96 40.96v0 454.656c0 22.622 18.338 40.96 40.96 40.96v0h122.88v-40.96h-122.88v-454.656h122.88v200.704h-61.44v40.96h61.44c22.622 0 40.96-18.338 40.96-40.96v0-200.704c0-22.622-18.338-40.96-40.96-40.96v0z" />
<glyph unicode="&#xe91f;" glyph-name="Empty-prj" d="M308.122 566.825h32.481v78.991h79.012v32.502h-79.012v78.991h-32.481v-78.991h-78.991v-32.502h78.991v-78.991zM552.018 786.268l0.102 0.164-0.184 0.512-0.717-2.068 0.594 1.044 0.205 0.348zM924.426 185.508l-75.776 78.725-119.46 126.566c-9.851 10.424-28.078 18.309-42.435 18.309h-284.365c-14.336 0-32.584-7.864-42.435-18.309l-119.439-126.546-75.776-78.725c-10.711-11.346-8.028-21.463-6.39-25.272s7.168-12.698 22.774-12.698h726.938c15.606 0 21.115 8.888 22.774 12.698s4.301 13.885-6.41 25.252zM468.541 293.233l6.82 24.576h140.431l13.64-49.152h-167.711zM652.37 293.233l-6.82 24.576h113.132l46.367-49.152h-145.859zM628.183 380.416h58.614c8.373-0.666 15.843-4.078 21.616-9.325l-0.030 0.027 23.265-24.576h-94.044l-4.71 16.978zM598.426 380.416l9.421-33.956h-124.518l9.421 33.956zM380.805 371.118c5.743 5.22 13.213 8.632 21.459 9.29l0.127 0.008h60.621l-9.421-33.956h-96.051zM330.486 317.87h115.118l-13.64-49.152h-147.866zM404.337 176.271h-208.753l61.44 63.795h166.605zM434.278 176.271l19.251 63.795h184.115l19.251-63.795zM686.838 176.271l-19.19 63.713h164.618l61.44-63.795z" />
<glyph unicode="&#xe920;" glyph-name="Export" d="M340.521 708.895h235.991v-95.498h90.89v-54.804l47.923-43.008v121.672c1.27 7.148 0.43 18.432-11.674 30.208l-73.011 71.352c-9.994 9.769-19.456 11.858-26.481 11.489v0.43c-100.864-0.307-236.483-0.696-262.554-0.696-42.476 0-44.646-43.274-44.646-43.274v-474.112h43.561zM619.52 689.541l33.915-33.157h-33.915zM621.67 286.72c5.263-2.191 19.087-5.673 33.669 8.909l91.873 91.873c7.557 7.526 12.233 17.94 12.233 29.445 0 11.758-4.883 22.375-12.732 29.934l-0.013 0.012-91.341 88.248c-8.54 8.192-16.773 10.506-23.183 10.506-0.056 0-0.122 0.001-0.188 0.001-3.744 0-7.311-0.753-10.56-2.116l0.18 0.067c-5.243-2.232-17.408-9.605-17.408-30.106v-196.608c-0.041-20.685 12.247-27.996 17.469-30.167zM647.168 483.328l68.649-66.335-68.649-68.731zM667.402 231.096v-0.594c0-39.219-39.219-39.219-39.219-39.219h-333.271v-47.923h333.292c48.116 0 87.122 39.006 87.122 87.122v0l-0.573 82.35-47.104-49.152z" />
<glyph unicode="&#xe921;" glyph-name="Folder" d="M856.064 474.624c0 0 0 0 0 0 0 10.59-8.037 19.302-18.344 20.37l-0.088 0.007v0.102h-493.568c-9.244-0.001-17.057-6.126-19.603-14.539l-0.038-0.145-102.81-212.091c-2.819-3.48-4.526-7.961-4.526-12.841 0-10.589 8.037-19.302 18.344-20.37l0.088-0.007v-0.102h493.568c9.99 0.003 18.309 7.159 20.112 16.625l0.020 0.128 0.758-0.225 102.236 211.169c1.308 1.803 2.351 3.902 3.015 6.163l0.036 0.145 0.799 1.516h-0.328c0.211 1.104 0.332 2.375 0.332 3.673 0 0.149-0.002 0.297-0.005 0.445v-0.022zM718.848 280.064h-446.464l82.289 169.984h446.669zM723.292 606.72c-34.98 0-208.896 1.024-208.896 1.024-3.973 24.392-14.5 42.004-26.972 43.008v0h-184.32c-45.243 0-81.92-36.677-81.92-81.92v0-206.848l45.056 86.016v124.928c0 18.432 16.384 36.864 36.864 36.864h169.738c3.891-23.88 14.049-41.267 26.194-42.844v-0.164h225.28v-36.864h40.96v34.816s-2.048 41.984-41.984 41.984z" />
<glyph unicode="&#xe922;" glyph-name="Guided-prj" d="M491.336 462.725v104.489l-47.043-47.043 12.513-12.534 16.814 16.794v-61.706h-23.060v-17.736h65.741v17.736h-24.965zM511.201 297.411h-78.766l17.326 15.462c27.894 24.904 52.47 53.248 52.572 60.805 0 13.087-6.922 19.988-19.988 19.988-7.967 0-15.729-17.121-18.104-26.296l-17.142 4.465c1.044 4.096 10.998 39.547 35.267 39.547 22.917 0 37.724-14.807 37.724-37.724 0-6.84-3.441-18.309-30.208-46.49-4.096-4.301-8.192-8.397-11.878-12.042h33.219zM479.621 133.079c-17.306 0-26.010 21.238-26.952 23.654l16.527 6.39c2.048-5.12 6.984-12.288 10.424-12.288 12.841 0 19.579 6.82 20.009 20.275 0.512 16.261-10.24 19.087-12.472 19.497l-16.527 2.54 11.489 12.288c7.864 8.499 15.217 19.292 15.544 22.835-1.147 8.499-7.209 12.82-18.043 12.82-5.571 0-11.428-7.721-13.394-11.448l-15.749 8.192c1.106 2.15 11.325 21.053 29.143 21.053 23.654 0 33.935-14.725 35.656-28.529 1.044-8.192-5.468-19.005-12.288-27.668 7.762-5.53 14.807-15.524 14.336-32.010-0.717-23.265-15.176-37.601-37.704-37.601zM497.664 228.27v0zM415.519 678.318h-79.012v78.991h-32.481v-78.991h-78.991v-32.502h78.991v-78.991h32.481v78.991h79.012v32.502zM564.9 516.813v0h235.745v-32.481h-235.745v32.481zM564.9 363.254v0h235.745v-32.481h-235.745v32.481zM564.9 211.169v0h235.745v-32.502h-235.745v32.502z" />
<glyph unicode="&#xe923;" glyph-name="Import" d="M338.473 708.895h235.991v-95.498h90.89v-77.578l47.923 47.923v53.514c1.27 7.148 0.43 18.432-11.674 30.208l-73.011 71.352c-9.994 9.769-19.456 11.858-26.481 11.489v0.43c-100.864-0.307-236.483-0.696-262.554-0.696-42.476 0-44.646-43.274-44.646-43.274v-474.112h43.561zM617.472 689.541l33.915-33.157h-33.915zM741.274 535.45c-5.263 2.191-19.087 5.673-33.669-8.909l-91.873-91.853c-7.557-7.526-12.233-17.94-12.233-29.445 0-11.758 4.883-22.375 12.732-29.934l0.013-0.012 91.382-88.269c8.54-8.192 16.773-10.506 23.183-10.506 0.056 0 0.122-0.001 0.188-0.001 3.744 0 7.311 0.753 10.56 2.116l-0.18-0.067c5.243 2.232 17.408 9.605 17.408 30.106v196.669c0 20.623-12.247 27.935-17.51 30.106zM715.776 338.842l-68.608 66.417 68.649 68.649zM665.354 253.952v-23.45c0-39.219-39.219-39.219-39.219-39.219h-333.271v-47.923h333.292c48.119 0.012 87.122 39.022 87.122 87.142v2.908l-47.923 47.923z" />
<glyph unicode="&#xe924;" glyph-name="Information" d="M552.96 630.272c0-12.442-10.086-22.528-22.528-22.528s-22.528 10.086-22.528 22.528c0 12.442 10.086 22.528 22.528 22.528s22.528-10.086 22.528-22.528zM454.656 525.824v45.056h75.776c12.442 0 22.528-10.086 22.528-22.528v0 0-313.344h-45.056v-1.024 291.84z" />
<glyph unicode="&#xe925;" glyph-name="Logo" d="M670.904 108.667h-261.878l-185.16 185.16v261.878l185.16 185.16h261.878l185.16-185.16v-261.878zM426.844 151.675h226.243l159.969 159.969v226.243l-159.969 159.969h-226.243l-159.969-159.969v-226.243zM354.816 293.437v255.59h61.747c36.577 0 65.27-11.407 85.32-34.611s30.269-54.272 30.269-93.204-10.24-70.001-30.269-93.204-48.763-34.611-85.32-34.611zM487.731 501.453c-16.118 20.849-39.711 31.068-71.168 31.068h-42.865v-222.577h42.865c31.457 0 55.050 10.24 71.168 30.72s24.371 47.104 24.371 80.609c0 32.993-8.294 59.72-24.371 80.179zM743.608 343.368c-11.407-31.846-40.96-53.862-79.872-53.862-29.491 0-53.862 10.609-73.134 31.457s-28.672 54.272-28.672 100.352 9.441 79.442 28.672 100.352 43.643 31.457 73.134 31.457c38.912 0 68.424-22.016 79.872-53.883h-20.828c-11.407 24.392-31.068 36.577-59.761 36.577-23.982 0-43.643-9.052-58.593-27.136s-22.405-47.104-22.405-87.306 7.475-69.202 22.405-87.286 34.611-27.136 58.593-27.136c28.672 0 48.374 12.288 59.761 36.577zM427.213 283.136h-83.968l-1.229 141.148v134.308h84.378c21.186-1.272 40.579-7.97 57.103-18.709l-0.455 0.277c24.392-15.647 53.248-47.473 55.46-110.92l1.147-1.167v-7.639c0-68.628-30.228-102.4-55.583-118.784-16.069-10.462-35.461-17.16-56.321-18.416l-0.326-0.016zM379.761 320h46.94c14.542 1.321 27.73 6.175 38.992 13.688l-0.305-0.192c23.286 15.565 35.799 42.23 37.253 79.36l-0.881 0.881v7.639c0 96.256-71.127 100.209-76.022 100.352h-46.858v-97.28zM660.48 276.48c-72.151 0-104.448 69.939-104.448 139.264v6.656c0 69.325 32.297 139.264 104.448 139.264 82.616 0 91.628-56.422 91.976-58.839l-36.495-5.202s0-0.164 0-0.451c-0.553 2.826-6.861 27.628-55.542 27.628-65.679 0-67.584-91.914-67.584-102.4v-6.656c0-10.486 1.905-102.4 67.584-102.4 48.701 0 54.989 24.801 55.562 27.628 0-0.287 0-0.451 0-0.451l36.475-5.161c-0.348-2.458-9.359-58.88-91.976-58.88z" />
<glyph unicode="&#xe926;" glyph-name="Description" d="M517.693 574.976l-70.861-200.991 36.7-12.943 16.548 46.92h64.819l16.548-46.92 36.7 12.943-70.881 200.991zM513.802 446.894l18.678 53.023 18.698-53.023zM366.592 284.16h327.68v360.448h-327.68zM405.504 605.696h249.856v-282.624h-249.856z" />
<glyph unicode="&#xe927;" glyph-name="Logout" d="M485.376 190.976h-110.592c-67.266 0.082-121.774 54.59-121.856 121.848v247.816c0 67.195 52.818 121.856 117.76 121.856h98.304v-38.912h-98.304c-43.479 0-78.848-37.212-78.848-82.944v-247.808c0.058-45.785 37.159-82.886 82.938-82.944h110.598zM646.595 631.747l-27.525-27.525 148.029-148.029h-362.619v-38.912h359.547l-144.957-144.957 27.525-27.525 191.037 192.963-191.037 193.987z" />
<glyph unicode="&#xe928;" glyph-name="Mail" d="M760.115 652.288h-458.547v-488.448h488.448v488.448zM721.203 613.376v0l-176.599-176.599-176.599 176.599zM751.104 588.247v-385.495h-410.624v383.119l204.124-204.124z" />
<glyph unicode="&#xe929;" glyph-name="Password" d="M753.234 568.832c-7.174 112.353-100.055 200.762-213.586 200.762s-206.412-88.409-213.554-200.137l-0.032-0.625h-0.43v-428.032h428.032v428.032zM539.648 730.624c91.981-0.115 167.362-71.034 174.573-161.176l0.040-0.616h-349.225c7.25 90.758 82.631 161.677 174.601 161.792h0.012zM714.752 179.712h-350.208v350.208h350.208z" />
<glyph unicode="&#xe92a;" glyph-name="Privacy-Settings" d="M546.816 124.416c-170.516 0-309.248 138.732-309.248 309.248s138.732 309.248 309.248 309.248 309.248-138.732 309.248-309.248-138.732-309.248-309.248-309.248zM546.816 704c-149.074 0-270.336-121.262-270.336-270.336s121.262-270.336 270.336-270.336 270.336 121.262 270.336 270.336-121.262 270.336-270.336 270.336zM616.448 273.92h-141.312v157.942c-17.727 17.779-28.688 42.313-28.688 69.407 0 54.292 44.012 98.304 98.304 98.304s98.304-44.012 98.304-98.304c0-26.042-10.126-49.719-26.656-67.308l0.048 0.051zM514.048 312.832h63.488v138.138l6.554 5.816c12.322 10.933 20.049 26.81 20.049 44.492 0 32.801-26.591 59.392-59.392 59.392s-59.392-26.591-59.392-59.392c0-18.402 8.369-34.85 21.509-45.744l0.098-0.079 7.066-5.837z" />
<glyph unicode="&#xe92b;" d="M250.081 553.574h-0.020l237.855 99.922-237.834-99.922z" />
<glyph unicode="&#xe92c;" d="M564.654 655.237h-0.020l96.092-40.796-96.072 40.796z" />
<glyph unicode="&#xe92d;" d="M279.020 523.53v0 0z" />
<glyph unicode="&#xe92e;" d="M677.417 489.452v0 0z" />
<glyph unicode="&#xe92f;" d="M677.54 447.304v0 0z" />
<glyph unicode="&#xe930;" d="M257.618 535.634v0 0z" />
<glyph unicode="&#xe931;" d="M603.197 437.166v0z" />
<glyph unicode="&#xe932;" d="M677.478 468.378v0 0z" />
<glyph unicode="&#xe933;" d="M549.437 619.418h-0.020l217.539-92.344-217.518 92.344z" />
<glyph unicode="&#xe934;" d="M279.020 523.53v0 0z" />
<glyph unicode="&#xe935;" d="M677.54 447.304l0.451-153.6c-2.355-4.096-12.616-13.578-40.735-22.528-30.044-9.482-69.632-14.828-111.186-15.073s-81.203 4.669-111.35 13.804c-28.221 8.561-38.584 17.961-40.96 21.975l-1.27 149.504 144.978-61.542 349.573 146.903-338.514 143.831-349.532-146.801 59.392-25.211 0.963-167.178 38.912 0.225-0.86 150.405 56.013-23.777 1.454-172.032 0.553-2.212c11.387-46.121 101.99-66.56 187.802-66.56h3.113c86.712 0.492 179.118 21.934 190.116 68.731l0.512 2.232-0.512 175.35zM794.89 535.511c-0.879 0.647-1.883 1.291-2.927 1.872l-0.145 0.074c1.188-0.66 2.191-1.311 3.149-2.020l-0.077 0.054zM788.48 539.095q1.475-0.635 2.765-1.311-1.29 0.676-2.765 1.311zM689.869 580.956l-132.813 56.361zM528.384 649.441l-28.672-12.022zM332.943 500.572v0l-54.047 22.938 249.487 104.714 238.49-101.253-249.467-104.858-145.408 61.727z" />
<glyph unicode="&#xe936;" glyph-name="Profile-Information" d="M775.168 179.712h-38.912v228.352h-37.888v38.912h76.8v-267.264zM735.232 526.848h38.912v-43.008h-38.912v43.008zM623.616 745.984c-92.706-0.057-167.836-75.223-167.836-167.936 0-60.679 32.182-113.842 80.409-143.352l0.735-0.418c-77.824-28.037-133.243-97.362-164.966-207.176l-0.553-1.884c-11.53-34.365-6.861-22.979-6.861-22.979h43.008c4.096 32.768 10.097 40.12 10.097 40.12 39.178 112.456 106.762 167.24 205.967 167.24l-0.635-0.512h3.707v40.018c-1.024 0-2.048 0-3.072 0-0.021 0-0.045 0-0.070 0-71.258 0-129.024 57.766-129.024 129.024s57.766 129.024 129.024 129.024c51.595 0 96.117-30.285 116.759-74.047l0.334-0.786h41.882c-23.328 66.625-85.622 113.569-158.893 113.664h-0.012z" />
<glyph unicode="&#xe937;" glyph-name="Profile-Pic" d="M223.232 744.96v-593.92h593.92v593.92zM675.287 190.996l-1.782-1.044h-313.692v11.489c0.307 11.203 0.778 22.036 1.454 32.358q0.328 5.161 0.717 10.117c0.451 2.703 0.983 5.366 1.577 8.028 0.184 0.86 0.43 1.72 0.635 2.58 0.43 1.782 0.86 3.564 1.352 5.325 0.287 1.004 0.594 2.048 0.901 3.011 0.471 1.577 0.963 3.174 1.475 4.731 0.348 1.044 0.737 2.048 1.106 3.133 0.532 1.495 1.085 2.99 1.679 4.485 0.41 1.044 0.84 2.048 1.27 3.133q0.901 2.171 1.884 4.321c0.471 1.024 0.942 2.048 1.434 3.072 0.696 1.434 1.413 2.847 2.048 4.26 0.512 0.983 1.004 2.048 1.536 2.929 0.799 1.454 1.638 2.888 2.478 4.321 0.512 0.881 1.024 1.782 1.556 2.662 0.983 1.597 2.048 3.174 3.052 4.751 0.451 0.676 0.86 1.352 1.311 2.048q2.273 3.297 4.71 6.492l1.044 1.29c1.311 1.679 2.642 3.338 4.096 4.977 0.635 0.758 1.311 1.475 2.048 2.212 1.126 1.29 2.253 2.56 3.441 3.809 0.758 0.799 1.536 1.577 2.294 2.376 1.126 1.147 2.253 2.294 3.42 3.4 0.819 0.799 1.659 1.577 2.519 2.355q1.741 1.597 3.523 3.154l2.662 2.253q1.843 1.516 3.727 2.99l2.744 2.048 1.352 0.963c0.614-0.512 1.27-0.983 1.905-1.495l2.253-1.761c1.024-0.778 2.048-1.536 3.133-2.294l2.232-1.597c1.147-0.778 2.294-1.536 3.461-2.294l2.048-1.331c1.475-0.922 2.97-1.802 4.485-2.683l1.167-0.696q2.847-1.618 5.755-3.072l1.905-0.922c1.331-0.655 2.662-1.29 4.096-1.905l2.417-1.044c1.208-0.512 2.417-1.044 3.625-1.516l2.601-1.004c1.167-0.451 2.355-0.881 3.543-1.29l2.724-0.901 3.543-1.106 2.785-0.799 3.584-0.942 2.806-0.676 3.645-0.778 2.806-0.553c1.249-0.225 2.499-0.43 3.768-0.614l2.765-0.41c1.311-0.184 2.642-0.328 3.953-0.471l2.621-0.287c1.475-0.123 2.949-0.225 4.424-0.307l2.212-0.143c2.212 0 4.444-0.164 6.676-0.164s4.608 0 6.902 0.164l2.232 0.143c1.536 0 3.092 0.205 4.628 0.348l2.621 0.287c1.413 0.164 2.806 0.328 4.198 0.512l2.703 0.41 4.096 0.717 2.642 0.512c1.393 0.287 2.785 0.614 4.096 0.942l2.437 0.573c1.577 0.41 3.133 0.84 4.69 1.29l1.823 0.512q3.236 1.004 6.431 2.048l0.737 0.287q2.806 1.024 5.55 2.048l2.048 0.84c1.413 0.614 2.826 1.229 4.239 1.884l2.191 1.065c1.311 0.635 2.621 1.29 3.912 2.048l2.212 1.188q1.925 1.065 3.83 2.171l2.048 1.229c1.331 0.819 2.642 1.659 3.953 2.519l1.782 1.167q2.376 1.618 4.69 3.318l0.86 0.614q2.662 2.048 5.243 4.096l0.471-0.348 1.72-1.311 2.191-1.7 1.7-1.372 3.707-3.154 2.048-1.802 1.618-1.454 2.048-1.884 1.536-1.475 2.048-2.048 1.434-1.475 2.048-2.15 1.29-1.393c0.737-0.819 1.454-1.638 2.171-2.478l1.024-1.167q1.577-1.843 3.092-3.748v-0.123q1.475-1.843 2.888-3.727l0.922-1.249c0.655-0.881 1.311-1.782 1.946-2.662l1.044-1.536c0.573-0.819 1.126-1.638 1.679-2.478l1.065-1.659 1.536-2.437 1.044-1.72 1.434-2.437 1.004-1.761 1.352-2.478 0.942-1.782c0.451-0.84 0.881-1.7 1.29-2.56l0.881-1.761c0.43-0.881 0.84-1.782 1.249-2.683l0.778-1.7c0.43-0.963 0.84-1.946 1.249-2.908l0.655-1.516c0.492-1.188 0.963-2.396 1.413-3.584l0.348-0.901q0.86-2.273 1.638-4.567l0.328-1.024c0.389-1.188 0.778-2.376 1.147-3.564 0.164-0.553 0.328-1.106 0.492-1.638 0.287-1.004 0.594-2.048 0.86-2.99 0.164-0.614 0.328-1.249 0.492-1.864 0.246-0.942 0.492-1.884 0.717-2.826s0.307-1.311 0.451-2.048 0.41-1.843 0.594-2.765 0.266-1.352 0.41-2.048 0.348-1.823 0.512-2.744 0.246-1.372 0.348-2.048 0.287-1.843 0.41-2.765 0.205-1.372 0.287-2.048 0.225-1.884 0.328-2.826 0.143-1.352 0.225-2.048 0.164-2.048 0.246-2.949c0-0.635 0.102-1.29 0.143-1.925 0-1.085 0.123-2.191 0.164-3.277 0-0.532 0-1.065 0-1.618q0-2.458 0-4.915zM613.458 409.088q-0.922-1.782-1.925-3.523l-0.348-0.573c-0.553-0.963-1.126-1.925-1.7-2.867l-0.573-0.901c-0.532-0.819-1.044-1.659-1.597-2.458l-0.737-1.044c-0.512-0.737-1.024-1.495-1.556-2.232l-0.901-1.188c-0.492-0.676-0.983-1.331-1.495-2.048l-1.044-1.27c-0.492-0.614-0.963-1.208-1.475-1.802l-1.167-1.352-1.454-1.638-1.331-1.413-1.352-1.413-8.888-8.192q-1.925-1.577-3.912-3.052l-1.188-0.86c-0.963-0.696-1.925-1.393-2.908-2.048l-1.577-1.044c-0.86-0.573-1.741-1.126-2.621-1.659l-1.741-1.024-2.601-1.475-1.782-0.963-2.703-1.372-1.761-0.86c-0.983-0.451-2.048-0.881-2.949-1.311l-1.577-0.676q-2.048-0.819-3.994-1.536l-0.635-0.246q-2.335-0.84-4.69-1.556l-1.495-0.43c-1.106-0.328-2.191-0.635-3.297-0.922l-1.843-0.451-3.031-0.676-2.048-0.389-2.99-0.512-2.048-0.307-3.072-0.389-1.925-0.205c-1.126-0.102-2.273-0.184-3.4-0.246l-1.638-0.102c-1.679 0-3.379-0.123-5.079-0.123s-3.4 0-5.1 0.123l-2.048 0.143c-1.004 0-2.048 0.123-3.011 0.205l-2.499 0.287-2.519 0.307c-0.942 0.123-1.864 0.307-2.806 0.471l-2.171 0.369c-0.922 0.184-1.823 0.389-2.744 0.594l-2.171 0.471c-0.881 0.205-1.761 0.471-2.642 0.696l-2.212 0.594c-0.84 0.246-1.679 0.532-2.519 0.778l-2.273 0.717c-0.819 0.287-1.638 0.594-2.458 0.901l-2.232 0.819c-0.819 0.328-1.618 0.676-2.437 1.024l-2.191 0.922c-0.778 0.348-1.536 0.737-2.294 1.085s-1.495 0.696-2.232 1.065-1.413 0.758-2.048 1.126-1.556 0.819-2.314 1.249-1.311 0.778-2.048 1.167-1.577 0.922-2.355 1.413-1.229 0.819-1.843 1.229-1.577 1.024-2.355 1.556-1.188 0.86-1.782 1.29-1.556 1.106-2.314 1.7-1.126 0.901-1.7 1.352-1.536 1.208-2.273 1.843-1.044 0.922-1.556 1.393-1.536 1.331-2.273 2.048v0c-1.188 1.106-2.376 2.253-3.523 3.42-19.134 19.487-30.945 46.22-30.945 75.712 0 59.698 48.395 108.093 108.093 108.093 59.676 0 108.057-48.359 108.093-108.026v-0.004c0-0.050 0-0.109 0-0.168 0-18.146-4.532-35.233-12.527-50.192l0.28 0.573zM778.24 189.952h-64.041v28.078q0 3.031 0 6.144c0 0.655 0 1.311 0 2.048 0 1.352-0.123 2.703-0.205 4.096 0 0.778-0.123 1.556-0.164 2.335 0 1.229-0.184 2.458-0.307 3.686 0 0.819-0.164 1.638-0.246 2.458q-0.184 1.782-0.41 3.564-0.164 1.249-0.328 2.478-0.246 1.761-0.532 3.523c-0.123 0.799-0.266 1.618-0.389 2.417-0.205 1.208-0.43 2.417-0.655 3.625-0.143 0.758-0.287 1.536-0.451 2.294-0.266 1.311-0.553 2.601-0.86 3.912-0.143 0.635-0.287 1.29-0.43 1.925q-0.635 2.683-1.352 5.345l-0.123 0.451q-0.778 2.888-1.638 5.755c-0.164 0.573-0.369 1.126-0.532 1.7-0.41 1.331-0.84 2.662-1.27 3.994-0.225 0.696-0.492 1.393-0.737 2.048-0.41 1.188-0.819 2.355-1.27 3.543l-0.84 2.212q-0.655 1.679-1.311 3.359l-0.922 2.253q-0.696 1.659-1.413 3.297l-0.983 2.191c-0.512 1.106-1.024 2.212-1.556 3.318l-1.004 2.048c-0.594 1.188-1.188 2.376-1.802 3.543l-0.901 1.761q-1.229 2.314-2.499 4.567l-0.348 0.655q-1.475 2.601-3.031 5.161l-0.86 1.372c-0.758 1.229-1.536 2.458-2.314 3.666l-1.208 1.802c-0.696 1.065-1.413 2.048-2.048 3.154l-1.372 1.946q-1.044 1.475-2.048 2.929l-1.454 2.048-2.642 2.621-1.495 1.884-2.335 2.826-1.516 1.782c-0.84 0.983-1.7 2.048-2.58 2.929l-1.413 1.577c-1.085 1.188-2.191 2.355-3.297 3.523l-0.799 0.86q-2.048 2.15-4.26 4.26l-1.188 1.126c-1.065 1.004-2.048 2.048-3.195 3.011l-1.659 1.475-2.867 2.519-1.864 1.577-2.785 2.294-2.048 1.577-1.372 1.085q1.577 2.212 3.092 4.506l0.512 0.819q1.577 2.417 3.052 4.895l0.901 1.536c1.106 1.925 2.191 3.85 3.215 5.816 10.446 19.684 16.579 43.036 16.579 67.82 0 81.189-65.817 147.005-147.005 147.005s-147.005-65.817-147.005-147.005c0-11.187 1.25-22.082 3.617-32.554l-0.187 0.983q0.492-2.212 1.044-4.424c0.492-2.048 1.065-3.953 1.638-5.898l0.492-1.597q0.737-2.396 1.556-4.751l0.41-1.188q1.024-2.847 2.171-5.652l0.553-1.311q0.942-2.253 2.048-4.465l0.696-1.495c0.86-1.823 1.741-3.645 2.683-5.427l0.307-0.573q1.27-2.417 2.642-4.792l0.901-1.536q1.27-2.15 2.621-4.26l0.635-1.004q1.638-2.499 3.359-4.956l0.328-0.492-0.553-0.451q-3.215-2.478-6.308-5.079l-0.594-0.492q-3.154-2.683-6.144-5.489l-1.065-0.983q-2.949-2.765-5.775-5.632l-1.004-1.024c-1.925-2.048-3.809-3.973-5.632-6.021l-0.471-0.532q-2.703-3.052-5.284-6.144l-0.532-0.655q-2.58-3.195-5.018-6.492l-0.84-1.147q-2.376-3.256-4.628-6.595l-0.737-1.106c-1.516-2.314-3.011-4.649-4.444-7.004l-0.246-0.41q-2.048-3.523-4.096-7.127l-0.471-0.86q-1.925-3.584-3.686-7.25l-0.635-1.311q-1.72-3.625-3.297-7.332l-0.512-1.208c-1.065-2.58-2.048-5.161-3.072-7.782v-0.266c-0.942-2.58-1.823-5.202-2.662-7.844l-0.369-1.106q-1.208-3.871-2.253-7.803l-0.389-1.475q-1.024-3.932-1.884-7.905l-0.266-1.27c-0.573-2.785-1.106-5.591-1.577-8.417l-0.184-1.577c-1.126-14.213-1.905-29.553-2.335-45.568v-12.288h-58.819v516.116h516.096z" />
<glyph unicode="&#xe938;" glyph-name="Account-Settings" d="M784.916 376.607c-0.002 5.355-0.292 10.64-0.856 15.843l0.057-0.647 50.012 28.877-58.798 101.868-50.033-28.877c-7.607 5.612-16.245 10.689-25.396 14.832l-0.9 0.365v57.713h-117.617v-57.754c-1.126-0.492-2.212-1.044-3.318-1.577-8.446-4.043-15.664-8.36-22.437-13.254l0.421 0.29-0.963-0.655-4.874 2.806-45.158 26.092-58.819-101.868 50.012-28.877c-0.505-4.555-0.793-9.837-0.793-15.186s0.288-10.631 0.849-15.831l-0.056 0.645-50.012-28.877 14.766-25.58 22.528-38.912 21.565-37.376 3.932 2.273 45.978 26.644c7.607-5.613 16.245-10.69 25.397-14.832l0.9-0.364v-57.754h117.617v57.754c10.083 4.502 18.749 9.58 26.777 15.475l-0.398-0.279 50.033-28.877 58.798 101.868-50.012 28.877c0.505 4.542 0.795 9.812 0.799 15.15v0.005zM743.834 398.070c1.391-6.464 2.187-13.891 2.187-21.504s-0.796-15.039-2.311-22.201l0.123 0.697-2.826-13.763 39.997-23.081-19.886-34.468-40.038 23.122-10.486-9.359c-10.376-9.305-22.747-16.624-36.369-21.225l-0.741-0.217-13.353-4.424v-46.203h-39.834v46.305l-13.353 4.424c-14.363 4.818-26.735 12.137-37.208 21.529l0.099-0.087-10.486 9.359-40.038-23.122-13.455 23.122-6.533 11.325 39.977 23.081-2.724 13.763c-1.39 6.465-2.186 13.891-2.186 21.504s0.796 15.039 2.309 22.202l-0.123-0.698 2.826 13.742-39.936 23.020 17.859 30.925 2.048 3.482 39.977-23.081 2.97 2.642 7.537 6.717c8.277 7.436 17.866 13.631 28.34 18.17l0.68 0.262 2.048 0.819c2.048 0.799 4.096 1.577 6.144 2.253l13.353 4.424v46.141h39.793v-46.203l13.353-4.424c14.363-4.818 26.734-12.137 37.208-21.53l-0.099 0.087 10.506-9.359 40.038 23.122 19.907-34.468-39.997-23.081zM352.44 592.671c1.024 70.472 58.392 127.207 129.011 127.207 68.919 0 125.217-54.035 128.839-122.051l0.014-0.322h38.912c-2.641 90.687-76.787 163.197-167.869 163.197-92.748 0-167.936-75.188-167.936-167.936 0-60.743 32.25-113.954 80.562-143.445l0.738-0.419c-77.824-28.037-133.243-97.362-164.966-207.176l-7.188-24.863h41.636l10.875 38.912c34.406 99.656 90.972 154.317 171.848 166.031l24.412 42.291c-66.711 5.487-118.787 60.933-118.886 128.563v0.010z" />
<glyph unicode="&#xe939;" glyph-name="Back" d="M486.973 251.965l27.525 27.525-148.029 148.029h362.619v38.912h-359.547l144.957 144.957-27.525 27.525-191.037-192.963 191.037-193.987z" />
<glyph unicode="&#xe93a;" glyph-name="Change-Password" d="M755.712 576c-0.051 118.171-95.859 213.947-214.036 213.947-103.914 0-190.532-74.051-209.962-172.262l-0.224-1.36 38.216-7.291c16.089 81.459 86.955 142.038 171.971 142.038 96.7 0 175.095-78.376 175.124-175.070v-0.003c0-1.7 0-25.62 0-46.080h-389.12v-428.032h428.032v428.032c0 21.156 0 45.67 0 46.080zM716.8 140.8h-350.208v350.208h350.208z" />
<glyph unicode="&#xe93b;" glyph-name="Coumtry" d="M787.497 428.831c0 0.138 0 0.302 0 0.467 0 34.116-6.403 66.737-18.072 96.727l0.623-1.818-0.758 2.048c-38.254 96.073-127.893 163.947-234.078 169.952l-0.705 0.032-0.123 0.451h-18.289c-64.773-0.91-123.819-24.704-169.585-63.639l0.38 0.315h-0.123l-3.748-3.318-1.679-1.495-11.612-11.1-0.41-0.41c-40.743-41.046-68.204-95.325-75.368-155.826l-0.121-1.256-1.597 0.717-0.205-29.962v-0.553c0-0.451 0-0.901 0-1.352s0-0.369 0-0.553v-10.24l0.307-0.143c5.734-142.643 123.535-256.942 267.571-256.942 0.007 0 0.015 0 0.023 0 130.297 0 238.861 93.047 262.871 216.32l0.274 1.69c0.112 0.552 0.213 1.252 0.28 1.962l0.007 0.086c0.205 0.737 0.369 1.475 0.512 2.212 2.309 13.272 3.629 28.555 3.629 44.147 0 0.521-0.001 1.042-0.004 1.563v-0.080zM732.979 512.061l0.696-1.802c9.439-24.069 14.91-51.94 14.91-81.089 0-0.126 0-0.253 0-0.379v0.019c0-0.019 0-0.042 0-0.065 0-12.265-0.953-24.307-2.789-36.056l0.168 1.305-26.419-26.214h-26.092l16.65 82.33 5.652 29.737-51.466 64.594-10.404 15.606-8.806 1.065-115.282 14.336 29.164 30.249 25.743 25.436-75.776 15.544 17.838 10.916c93.739-2.634 173.085-61.521 205.676-143.988l0.537-1.543zM356.7 589.476l4.608 4.383-0.819-76.902 18.166-51.016 66.621-5.652 34.714-39.281-0.205-71.844c-14.93-12.288-31.007-24.883-37.724-29.368l-6.349-0.266h-0.164l-24.084-1.188h-1.905l-9.093-0.471-37.97 26.194-0.123 2.171-4.342 83.046-24.801 5.468-0.594 0.143-3.543 0.819-2.744 0.635h-0.389l-3.871 0.881-2.621 0.614-0.737 0.164-9.953 2.355-2.949 0.717h-0.41l-3.092 0.758-2.54 0.635h-0.225l-3.072 0.778-2.048 0.553-2.826 0.737c3.819 56.808 27.949 107.343 65.109 144.982l-0.024-0.024zM519.7 199.905c-117.764 0.149-214.71 89.085-227.5 203.454l-0.094 1.039h0.307l6.779-1.659h0.205l3.4-0.819h0.348l3.441-0.819 6.984-1.638h0.266l6.717-1.536 3.891-74.732 64.676-44.995 6.636 0.348c19.169 1.004 47.677 2.437 51.057 2.458 7.209 0 11.981 0 64.758 44.012l6.963 5.816 0.307 104.837-54.825 62.034-57.201 4.895-7.434 20.89 1.065 100.762c18.268 11.347 39.415 20.481 61.903 26.277l1.585 0.347 1.167-34.939 40.346-8.192-18.575-18.432 6.943-35.451 2.355-13.251h0.246l0.123-0.594 134.779-16.384 1.413-2.048 41.349-51.917-2.253-11.858-26.051-128.819h79.872c-37.98-76.969-115.879-128.998-205.938-129.065h-0.009z" />
<glyph unicode="&#xe93c;" glyph-name="Date-of-Birth" d="M625.664 569.754v138.342h-107.52v-128.266l-208.896 19.579v-325.632l217.498-171.889h6.758c70.676 0 137.4 13.005 187.863 36.598 55.173 25.805 85.545 61.911 85.545 101.642v312.627zM557.056 669.184h29.696v-141.312h-29.696zM518.144 540.754v-51.794h107.52v41.697l138.24-13.128c-0.451-0.963-0.963-1.946-1.495-2.908l-0.389-0.696c-0.492-0.86-1.004-1.741-1.556-2.601l-0.246-0.389c-0.614-0.963-1.29-1.925-2.048-2.888l-0.41-0.655c-0.655-0.881-1.311-1.741-2.048-2.601l-0.266-0.328c-0.778-0.963-1.618-1.905-2.478-2.847l-0.614-0.676c-0.799-0.86-1.638-1.741-2.499-2.601l-0.287-0.287c-0.942-0.942-1.925-1.864-2.949-2.785l-0.758-0.676c-0.963-0.86-1.946-1.72-2.97-2.58l-0.266-0.225c-1.106-0.922-2.253-1.823-3.42-2.724l-0.86-0.655c-1.106-0.86-2.253-1.7-3.42-2.54l-0.266-0.184c-1.249-0.881-2.54-1.761-3.85-2.642l-0.983-0.655c-1.27-0.84-2.56-1.659-3.912-2.499l-0.225-0.143c-1.393-0.86-2.826-1.7-4.28-2.54l-1.106-0.635c-1.434-0.819-2.908-1.638-4.403-2.437h-0.143c-1.536-0.819-3.113-1.638-4.71-2.437l-1.208-0.614c-1.618-0.799-3.256-1.597-4.936-2.396-43.848-20.48-102.093-32.113-164.659-32.891l-147.825 116.736zM768 240.128c0-23.429-22.999-47.616-63.119-66.396-43.848-20.48-102.093-32.113-164.659-32.891l-192.061 151.716v97.874l178.586-141.087h6.758c70.676 0 137.4 13.005 187.863 36.598 17.795 8.167 33.134 17.838 47.003 29.233l-0.37-0.295zM704.881 321.188c-43.848-20.48-102.093-32.113-164.659-32.891l-192.061 151.716v97.874l178.586-141.087h6.758c70.676 0 137.4 13.005 187.863 36.598 2.048 0.963 4.096 2.048 6.144 2.949l1.761 0.881 4.321 2.253 1.72 0.922c1.864 1.024 3.727 2.048 5.53 3.092v0c1.823 1.065 3.604 2.048 5.366 3.215l1.556 0.963 3.789 2.437 1.516 1.004c1.597 1.085 3.174 2.171 4.71 3.256l0.184 0.123c1.577 1.147 3.133 2.294 4.628 3.461l1.331 1.044q1.659 1.29 3.236 2.621l0.819 0.655v-74.752c0.020-23.368-22.979-47.555-63.099-66.335z" />
<glyph unicode="&#xe93d;" glyph-name="Delete" d="M286.925 734.044h480.891v-38.912h-480.891v38.912zM722.35 203.919h-389.98v423.649h38.912v-384.737h312.156v384.737h38.912v-423.649zM448.901 629.043h38.912v-300.913h-38.912v300.913zM572.805 627.569h38.912v-300.913h-38.912v300.913z" />
</font>
</defs>
</svg>
